<svg width="36" height="40" viewBox="0 0 36 40" fill="none" xmlns="http://www.w3.org/2000/svg">
<g id="Logo" clip-path="url(#clip0_4581_10429)">
<g id="Group 1">
<path id="Vector" d="M35.6379 22.0675V28.0071C35.6379 28.0755 35.6366 28.144 35.6325 28.2124C35.6312 28.2259 35.6312 28.2406 35.6299 28.254C35.6272 28.2943 35.6245 28.3346 35.6205 28.3762C35.6164 28.4165 35.6124 28.4567 35.607 28.497C35.603 28.5359 35.5963 28.5748 35.5909 28.6124C35.5815 28.6702 35.5721 28.7265 35.5601 28.7842C35.5534 28.8205 35.5453 28.8554 35.5372 28.8916C35.5292 28.9225 35.5211 28.9547 35.5131 28.9869C35.5064 29.0165 35.4983 29.0446 35.4889 29.0742C35.4527 29.2044 35.4084 29.3332 35.3574 29.4594C35.3466 29.4863 35.3359 29.5144 35.3238 29.5413C35.293 29.6151 35.2594 29.6876 35.2232 29.7587C35.2057 29.795 35.1869 29.8299 35.1681 29.8648L35.1668 29.8634L28.4473 26.1238L17.9238 20.2661L25.8379 16.6232L35.4956 21.9896L35.6379 22.0675Z" fill="url(#paint0_linear_4581_10429)"/>
<path id="Vector_2" d="M35.5194 10.9829L33.471 12.5615L31.6576 15.4125L14.416 5.81515L20.9677 1.21381L24.9274 3.50105H24.9288L32.1851 7.69032L33.6872 8.55743C34.612 9.09166 35.2643 9.97219 35.5194 10.9829Z" fill="url(#paint1_linear_4581_10429)"/>
<path id="Vector_3" d="M24.9275 3.50101L0 17.7815V11.9373C0 10.5426 0.743624 9.25403 1.95034 8.55738L15.8685 0.522483C17.0752 -0.174161 18.5624 -0.174161 19.7705 0.522483L24.9275 3.50101Z" fill="#0265DC"/>
<path id="Vector_4" d="M35.6376 11.9373V13.9655L3.43758 32.246L1.95034 31.387C0.743624 30.689 0 29.4017 0 28.0071V25.9829L32.1852 7.69031L33.6872 8.55742C34.894 9.25407 35.6376 10.5427 35.6376 11.9373Z" fill="#0265DC"/>
<path id="Vector_5" d="M35.6374 21.9064V28.007C35.6374 28.0755 35.636 28.144 35.632 28.2124C35.6307 28.2258 35.6307 28.2406 35.6293 28.254C35.6266 28.2943 35.624 28.3346 35.6199 28.3762C35.6159 28.4164 35.6119 28.4567 35.6065 28.497C35.6025 28.5359 35.5958 28.5748 35.5904 28.6124C35.581 28.6701 35.5716 28.7265 35.5595 28.7842C35.5528 28.8205 35.5448 28.8554 35.5367 28.8916C35.5287 28.9225 35.5206 28.9547 35.5125 28.9869C35.5058 29.0164 35.4978 29.0446 35.4884 29.0742C35.4521 29.2044 35.4079 29.3332 35.3568 29.4594C35.3461 29.4862 35.3354 29.5144 35.3233 29.5413C35.2924 29.6151 35.2589 29.6876 35.2226 29.7587C35.2052 29.795 35.1864 29.8299 35.1676 29.8648C35.1461 29.9037 35.1246 29.9426 35.1018 29.9802C35.0803 30.0191 35.0562 30.0567 35.0334 30.0943C34.985 30.1681 34.9354 30.2419 34.883 30.3131C34.8293 30.3856 34.7743 30.4554 34.7179 30.5225C34.6884 30.5574 34.6589 30.5909 34.6293 30.6232C34.5998 30.6567 34.5689 30.6889 34.538 30.7211C34.4763 30.7856 34.4119 30.8487 34.3448 30.9077C34.3193 30.9319 34.2924 30.9547 34.2656 30.9775C34.2495 30.9909 34.2334 31.0044 34.2172 31.0178C34.185 31.046 34.1515 31.0728 34.1166 31.0983C34.083 31.1252 34.0495 31.1507 34.0132 31.1748C33.9461 31.2245 33.8763 31.2715 33.8052 31.3158C33.7662 31.3399 33.7273 31.3641 33.687 31.3869L19.7703 39.4218C18.5622 40.1185 17.075 40.1185 15.8683 39.4218L10.7783 36.4836L28.4468 26.1238L35.4951 21.9896L35.6374 21.9064Z" fill="#0265DC"/>
<path id="Vector_6" d="M6.99866 5.64331V34.301L3.43758 32.246L1.95034 31.3869C0.743624 30.6889 0 29.4017 0 28.0071V11.9373C0 10.5426 0.743624 9.25405 1.95034 8.5574L6.99866 5.64331Z" fill="#0265DC"/>
</g>
</g>
<defs>
<linearGradient id="paint0_linear_4581_10429" x1="34.5641" y1="26.4433" x2="20.2688" y2="16.6446" gradientUnits="userSpaceOnUse">
<stop stop-color="#0265DC"/>
<stop offset="1" stop-color="#0265DC" stop-opacity="0"/>
</linearGradient>
<linearGradient id="paint1_linear_4581_10429" x1="32.2147" y1="12.8863" x2="19.2617" y2="4.49702" gradientUnits="userSpaceOnUse">
<stop stop-color="#0265DC"/>
<stop offset="1" stop-color="#0265DC" stop-opacity="0"/>
</linearGradient>
<clipPath id="clip0_4581_10429">
<rect width="36" height="40" fill="white"/>
</clipPath>
</defs>
</svg>
