<svg width="14" height="16" viewBox="0 0 14 16" fill="none" xmlns="http://www.w3.org/2000/svg">
<path d="M13 6.90999H1M9.66667 1.57666V4.24333M4.33333 1.57666V4.24333M4.2 14.91H9.8C10.9201 14.91 11.4802 14.91 11.908 14.692C12.2843 14.5003 12.5903 14.1943 12.782 13.818C13 13.3902 13 12.8301 13 11.71V6.10999C13 4.98989 13 4.42984 12.782 4.00201C12.5903 3.62569 12.2843 3.31973 11.908 3.12798C11.4802 2.90999 10.9201 2.90999 9.8 2.90999H4.2C3.0799 2.90999 2.51984 2.90999 2.09202 3.12798C1.71569 3.31973 1.40973 3.62569 1.21799 4.00201C1 4.42984 1 4.98989 1 6.10999V11.71C1 12.8301 1 13.3902 1.21799 13.818C1.40973 14.1943 1.71569 14.5003 2.09202 14.692C2.51984 14.91 3.0799 14.91 4.2 14.91Z" stroke="#0265DC" stroke-width="2" stroke-linecap="round" stroke-linejoin="round"/>
</svg>
