<svg width="12" height="12" viewBox="0 0 12 12" fill="none" xmlns="http://www.w3.org/2000/svg">
<path fill-rule="evenodd" clip-rule="evenodd" d="M6.83515 11.9124C9.61631 11.4693 11.7418 9.0598 11.7418 6.15389C11.7418 2.93331 9.13105 0.32251 5.91048 0.32251C2.6899 0.32251 0.0791016 2.93331 0.0791016 6.15389C0.0791016 9.05978 2.20462 11.4692 4.98575 11.9123C4.98039 11.899 4.97743 11.8843 4.97743 11.869V7.90368C4.97743 7.83927 4.92521 7.78705 4.8608 7.78705H3.69453C3.63012 7.78705 3.5779 7.73484 3.5779 7.67043V6.2709C3.5779 6.20648 3.63012 6.15427 3.69453 6.15427H4.8608C4.92521 6.15427 4.97743 6.10205 4.97743 6.03764V4.52148C4.97743 3.82172 5.72385 2.65544 6.84347 2.65544H8.35964C8.42405 2.65544 8.47625 2.70766 8.47625 2.77207V4.1716C8.47625 4.23601 8.42404 4.28823 8.35963 4.28823H7.65986C7.42661 4.28823 6.84347 4.52148 6.84347 4.98799V6.03772C6.84347 6.10213 6.89569 6.15427 6.9601 6.15427H8.12637C8.19078 6.15427 8.243 6.20648 8.243 6.2709V7.67043C8.243 7.73484 8.19078 7.78705 8.12637 7.78705H6.9601C6.89569 7.78705 6.84347 7.83927 6.84347 7.90368V11.869C6.84347 11.8843 6.84052 11.899 6.83515 11.9124Z" fill="#F5F8FB"/>
</svg>
