<svg width="14" height="13" viewBox="0 0 14 13" fill="none" xmlns="http://www.w3.org/2000/svg">
<path fill-rule="evenodd" clip-rule="evenodd" d="M4.46249 0.126279C5.11871 0.0960687 5.32794 0.0893555 6.99955 0.0893555C8.67116 0.0893555 8.88039 0.0966282 9.53605 0.126279C10.1917 0.155929 10.6393 0.260544 11.0309 0.412153C11.4409 0.567118 11.813 0.809356 12.1207 1.12264C12.434 1.42978 12.6756 1.80124 12.83 2.21187C12.9822 2.60348 13.0863 3.05104 13.1165 3.70558C13.1467 4.36292 13.1534 4.57216 13.1534 6.24321C13.1534 7.91481 13.1461 8.12405 13.1165 8.78027C13.0868 9.43482 12.9822 9.88237 12.83 10.274C12.6756 10.6847 12.4336 11.0567 12.1207 11.3643C11.813 11.6776 11.4409 11.9193 11.0309 12.0737C10.6393 12.2259 10.1917 12.3299 9.53717 12.3601C8.88039 12.3903 8.67116 12.3971 6.99955 12.3971C5.32794 12.3971 5.11871 12.3898 4.46249 12.3601C3.80794 12.3305 3.36039 12.2259 2.96878 12.0737C2.55811 11.9193 2.18602 11.6772 1.87843 11.3643C1.56536 11.057 1.32308 10.6851 1.1685 10.2745C1.01689 9.88293 0.912836 9.43537 0.882626 8.78083C0.852416 8.12349 0.845703 7.91426 0.845703 6.24321C0.845703 4.5716 0.852976 4.36237 0.882626 3.7067C0.912277 3.05104 1.01689 2.60348 1.1685 2.21187C1.32331 1.80129 1.56577 1.42939 1.87899 1.12208C2.18615 0.809077 2.55786 0.566807 2.96822 0.412153C3.35983 0.260544 3.80738 0.156488 4.46193 0.126279H4.46249ZM9.48626 1.23397C8.83731 1.20432 8.64263 1.19817 6.99955 1.19817C5.35647 1.19817 5.16179 1.20432 4.51284 1.23397C3.91256 1.26138 3.58696 1.36152 3.3699 1.446C3.08291 1.55789 2.87759 1.69048 2.66221 1.90586C2.45804 2.10449 2.30091 2.3463 2.20235 2.61355C2.11787 2.83062 2.01773 3.15621 1.99032 3.75649C1.96067 4.40544 1.95451 4.60013 1.95451 6.24321C1.95451 7.88628 1.96067 8.08097 1.99032 8.72992C2.01773 9.3302 2.11787 9.6558 2.20235 9.87286C2.30081 10.1397 2.45801 10.3819 2.66221 10.5806C2.86081 10.7847 3.10305 10.942 3.3699 11.0404C3.58696 11.1249 3.91256 11.225 4.51284 11.2524C5.16179 11.2821 5.35591 11.2882 6.99955 11.2882C8.64319 11.2882 8.83731 11.2821 9.48626 11.2524C10.0865 11.225 10.4121 11.1249 10.6292 11.0404C10.9162 10.9285 11.1215 10.7959 11.3369 10.5806C11.5411 10.3819 11.6983 10.1397 11.7968 9.87286C11.8812 9.6558 11.9814 9.3302 12.0088 8.72992C12.0384 8.08097 12.0446 7.88628 12.0446 6.24321C12.0446 4.60013 12.0384 4.40544 12.0088 3.75649C11.9814 3.15621 11.8812 2.83062 11.7968 2.61355C11.6849 2.32656 11.5523 2.12124 11.3369 1.90586C11.1383 1.7017 10.8964 1.54458 10.6292 1.446C10.4121 1.36152 10.0865 1.26138 9.48626 1.23397ZM6.21354 8.14027C6.65251 8.323 7.1413 8.34766 7.59643 8.21004C8.05157 8.07242 8.4448 7.78106 8.70898 7.38572C8.97316 6.99038 9.09189 6.51558 9.04489 6.04242C8.99789 5.56927 8.78808 5.12711 8.4513 4.79146C8.23661 4.5769 7.97701 4.41261 7.69121 4.31042C7.4054 4.20823 7.10049 4.17068 6.79843 4.20047C6.49637 4.23026 6.20467 4.32666 5.94434 4.48272C5.684 4.63878 5.4615 4.85061 5.29287 5.10298C5.12423 5.35535 5.01364 5.64197 4.96907 5.9422C4.9245 6.24244 4.94705 6.54882 5.0351 6.8393C5.12315 7.12977 5.2745 7.39711 5.47827 7.62207C5.68205 7.84703 5.93316 8.02401 6.21354 8.14027ZM4.76291 4.00656C5.05663 3.71284 5.40532 3.47985 5.78909 3.32089C6.17285 3.16193 6.58417 3.08011 6.99955 3.08011C7.41493 3.08011 7.82625 3.16193 8.21001 3.32089C8.59378 3.47985 8.94247 3.71284 9.23619 4.00656C9.52991 4.30028 9.76291 4.64898 9.92187 5.03274C10.0808 5.41651 10.1626 5.82782 10.1626 6.24321C10.1626 6.65859 10.0808 7.0699 9.92187 7.45367C9.76291 7.83743 9.52991 8.18613 9.23619 8.47985C8.643 9.07304 7.83845 9.4063 6.99955 9.4063C6.16065 9.4063 5.3561 9.07304 4.76291 8.47985C4.16971 7.88665 3.83646 7.08211 3.83646 6.24321C3.83646 5.4043 4.16971 4.59976 4.76291 4.00656ZM10.8642 3.55118C10.937 3.48252 10.9952 3.39995 11.0355 3.30836C11.0758 3.21678 11.0973 3.11804 11.0988 3.01799C11.1003 2.91794 11.0816 2.81861 11.044 2.72589C11.0064 2.63317 10.9506 2.54894 10.8798 2.47819C10.8091 2.40744 10.7248 2.3516 10.6321 2.31398C10.5394 2.27637 10.4401 2.25773 10.34 2.25919C10.24 2.26065 10.1412 2.28217 10.0496 2.32247C9.95805 2.36278 9.87548 2.42105 9.80682 2.49383C9.67329 2.63539 9.60018 2.82341 9.60302 3.01799C9.60586 3.21257 9.68441 3.39838 9.82202 3.53598C9.95962 3.67359 10.1454 3.75214 10.34 3.75498C10.5346 3.75782 10.7226 3.68471 10.8642 3.55118Z" fill="#F5F8FB"/>
</svg>
