<?xml version="1.0" encoding="UTF-8"?>
<svg xmlns="http://www.w3.org/2000/svg" xmlns:xlink="http://www.w3.org/1999/xlink" width="0" height="0">
<symbol id="calendar-icon" width="14" height="16" viewBox="0 0 14 16" fill="none">
<path d="M13 6.90999H1M9.66667 1.57666V4.24333M4.33333 1.57666V4.24333M4.2 14.91H9.8C10.9201 14.91 11.4802 14.91 11.908 14.692C12.2843 14.5003 12.5903 14.1943 12.782 13.818C13 13.3902 13 12.8301 13 11.71V6.10999C13 4.98989 13 4.42984 12.782 4.00201C12.5903 3.62569 12.2843 3.31973 11.908 3.12798C11.4802 2.90999 10.9201 2.90999 9.8 2.90999H4.2C3.0799 2.90999 2.51984 2.90999 2.09202 3.12798C1.71569 3.31973 1.40973 3.62569 1.21799 4.00201C1 4.42984 1 4.98989 1 6.10999V11.71C1 12.8301 1 13.3902 1.21799 13.818C1.40973 14.1943 1.71569 14.5003 2.09202 14.692C2.51984 14.91 3.0799 14.91 4.2 14.91Z" stroke="#0265DC" stroke-width="2" stroke-linecap="round" stroke-linejoin="round"/>
</symbol>

<symbol id="discord-logo" width="24" height="24" viewBox="0 0 24 24" fill="none">
<path d="M20.2752 6.02667C18.7615 4.74667 16.945 4.10667 15.0275 4L14.7248 4.32C16.4404 4.74667 17.9541 5.6 19.367 6.77333C17.6514 5.81333 15.7339 5.17333 13.7156 4.96C13.1101 4.85333 12.6055 4.85333 12 4.85333C11.3945 4.85333 10.8899 4.85333 10.2844 4.96C8.26606 5.17333 6.34862 5.81333 4.63303 6.77333C6.04587 5.6 7.55963 4.74667 9.27523 4.32L8.97248 4C7.05505 4.10667 5.23853 4.74667 3.72477 6.02667C2.00917 9.44 1.10092 13.28 1 17.2267C2.51376 18.9333 4.63303 20 6.85321 20C6.85321 20 7.55963 19.1467 8.06422 18.4C6.75229 18.08 5.54128 17.3333 4.73395 16.16C5.44037 16.5867 6.14679 17.0133 6.85321 17.3333C7.76147 17.76 8.66972 17.9733 9.57798 18.1867C10.3853 18.2933 11.1927 18.4 12 18.4C12.8073 18.4 13.6147 18.2933 14.422 18.1867C15.3303 17.9733 16.2385 17.76 17.1468 17.3333C17.8532 17.0133 18.5596 16.5867 19.2661 16.16C18.4587 17.3333 17.2477 18.08 15.9358 18.4C16.4404 19.1467 17.1468 20 17.1468 20C19.367 20 21.4862 18.9333 23 17.2267C22.8991 13.28 21.9908 9.44 20.2752 6.02667ZM8.66972 15.3067C7.66055 15.3067 6.75229 14.3467 6.75229 13.1733C6.75229 12 7.66055 11.04 8.66972 11.04C9.6789 11.04 10.5872 12 10.5872 13.1733C10.5872 14.3467 9.6789 15.3067 8.66972 15.3067ZM15.3303 15.3067C14.3211 15.3067 13.4128 14.3467 13.4128 13.1733C13.4128 12 14.3211 11.04 15.3303 11.04C16.3394 11.04 17.2477 12 17.2477 13.1733C17.2477 14.3467 16.3394 15.3067 15.3303 15.3067Z" fill="#F5F8FB"/>
</symbol>

<symbol id="facebook-icon" width="12" height="12" viewBox="0 0 12 12" fill="none">
<path fill-rule="evenodd" clip-rule="evenodd" d="M6.83515 11.9124C9.61631 11.4693 11.7418 9.0598 11.7418 6.15389C11.7418 2.93331 9.13105 0.32251 5.91048 0.32251C2.6899 0.32251 0.0791016 2.93331 0.0791016 6.15389C0.0791016 9.05978 2.20462 11.4692 4.98575 11.9123C4.98039 11.899 4.97743 11.8843 4.97743 11.869V7.90368C4.97743 7.83927 4.92521 7.78705 4.8608 7.78705H3.69453C3.63012 7.78705 3.5779 7.73484 3.5779 7.67043V6.2709C3.5779 6.20648 3.63012 6.15427 3.69453 6.15427H4.8608C4.92521 6.15427 4.97743 6.10205 4.97743 6.03764V4.52148C4.97743 3.82172 5.72385 2.65544 6.84347 2.65544H8.35964C8.42405 2.65544 8.47625 2.70766 8.47625 2.77207V4.1716C8.47625 4.23601 8.42404 4.28823 8.35963 4.28823H7.65986C7.42661 4.28823 6.84347 4.52148 6.84347 4.98799V6.03772C6.84347 6.10213 6.89569 6.15427 6.9601 6.15427H8.12637C8.19078 6.15427 8.243 6.20648 8.243 6.2709V7.67043C8.243 7.73484 8.19078 7.78705 8.12637 7.78705H6.9601C6.89569 7.78705 6.84347 7.83927 6.84347 7.90368V11.869C6.84347 11.8843 6.84052 11.899 6.83515 11.9124Z" fill="#F5F8FB"/>
</symbol>

<symbol id="folder-icon" width="24" height="24" viewBox="0 0 24 24" fill="none">
<path d="M13 7L11.8845 4.76892C11.5634 4.1268 11.4029 3.80573 11.1634 3.57116C10.9516 3.36373 10.6963 3.20597 10.4161 3.10931C10.0992 3 9.74021 3 9.02229 3H5.2C4.0799 3 3.51984 3 3.09202 3.21799C2.71569 3.40973 2.40973 3.71569 2.21799 4.09202C2 4.51984 2 5.0799 2 6.2V7M2 7H17.2C18.8802 7 19.7202 7 20.362 7.32698C20.9265 7.6146 21.3854 8.07354 21.673 8.63803C22 9.27976 22 10.1198 22 11.8V16.2C22 17.8802 22 18.7202 21.673 19.362C21.3854 19.9265 20.9265 20.3854 20.362 20.673C19.7202 21 18.8802 21 17.2 21H6.8C5.11984 21 4.27976 21 3.63803 20.673C3.07354 20.3854 2.6146 19.9265 2.32698 19.362C2 18.7202 2 17.8802 2 16.2V7Z" stroke="#F8F7FF" stroke-width="2" stroke-linecap="round" stroke-linejoin="round"/>
</symbol>

<symbol id="icons-flat-social" width="25" height="24" viewBox="0 0 25 24" fill="none">
<path d="M20.3642 2.76904H4.63221C3.8786 2.76904 3.26923 3.364 3.26923 4.09957V19.8965C3.26923 20.632 3.8786 21.2306 4.63221 21.2306H20.3642C21.1178 21.2306 21.7308 20.632 21.7308 19.9001V4.09957C21.7308 3.364 21.1178 2.76904 20.3642 2.76904ZM8.74639 18.501H6.00601V9.68851H8.74639V18.501ZM7.3762 8.48779C6.49639 8.48779 5.78605 7.77746 5.78605 6.90126C5.78605 6.02505 6.49639 5.31472 7.3762 5.31472C8.2524 5.31472 8.96274 6.02505 8.96274 6.90126C8.96274 7.77385 8.2524 8.48779 7.3762 8.48779ZM19.0012 18.501H16.2644V14.2174C16.2644 13.1969 16.2464 11.8808 14.8401 11.8808C13.4159 11.8808 13.1995 12.995 13.1995 14.1452V18.501H10.4663V9.68851H13.0913V10.8928H13.1274C13.4916 10.2005 14.3858 9.46856 15.7163 9.46856C18.4892 9.46856 19.0012 11.2931 19.0012 13.6657V18.501Z" fill="#F5F8FB"/>
</symbol>

<symbol id="instagram-icon" width="14" height="13" viewBox="0 0 14 13" fill="none">
<path fill-rule="evenodd" clip-rule="evenodd" d="M4.46249 0.126279C5.11871 0.0960687 5.32794 0.0893555 6.99955 0.0893555C8.67116 0.0893555 8.88039 0.0966282 9.53605 0.126279C10.1917 0.155929 10.6393 0.260544 11.0309 0.412153C11.4409 0.567118 11.813 0.809356 12.1207 1.12264C12.434 1.42978 12.6756 1.80124 12.83 2.21187C12.9822 2.60348 13.0863 3.05104 13.1165 3.70558C13.1467 4.36292 13.1534 4.57216 13.1534 6.24321C13.1534 7.91481 13.1461 8.12405 13.1165 8.78027C13.0868 9.43482 12.9822 9.88237 12.83 10.274C12.6756 10.6847 12.4336 11.0567 12.1207 11.3643C11.813 11.6776 11.4409 11.9193 11.0309 12.0737C10.6393 12.2259 10.1917 12.3299 9.53717 12.3601C8.88039 12.3903 8.67116 12.3971 6.99955 12.3971C5.32794 12.3971 5.11871 12.3898 4.46249 12.3601C3.80794 12.3305 3.36039 12.2259 2.96878 12.0737C2.55811 11.9193 2.18602 11.6772 1.87843 11.3643C1.56536 11.057 1.32308 10.6851 1.1685 10.2745C1.01689 9.88293 0.912836 9.43537 0.882626 8.78083C0.852416 8.12349 0.845703 7.91426 0.845703 6.24321C0.845703 4.5716 0.852976 4.36237 0.882626 3.7067C0.912277 3.05104 1.01689 2.60348 1.1685 2.21187C1.32331 1.80129 1.56577 1.42939 1.87899 1.12208C2.18615 0.809077 2.55786 0.566807 2.96822 0.412153C3.35983 0.260544 3.80738 0.156488 4.46193 0.126279H4.46249ZM9.48626 1.23397C8.83731 1.20432 8.64263 1.19817 6.99955 1.19817C5.35647 1.19817 5.16179 1.20432 4.51284 1.23397C3.91256 1.26138 3.58696 1.36152 3.3699 1.446C3.08291 1.55789 2.87759 1.69048 2.66221 1.90586C2.45804 2.10449 2.30091 2.3463 2.20235 2.61355C2.11787 2.83062 2.01773 3.15621 1.99032 3.75649C1.96067 4.40544 1.95451 4.60013 1.95451 6.24321C1.95451 7.88628 1.96067 8.08097 1.99032 8.72992C2.01773 9.3302 2.11787 9.6558 2.20235 9.87286C2.30081 10.1397 2.45801 10.3819 2.66221 10.5806C2.86081 10.7847 3.10305 10.942 3.3699 11.0404C3.58696 11.1249 3.91256 11.225 4.51284 11.2524C5.16179 11.2821 5.35591 11.2882 6.99955 11.2882C8.64319 11.2882 8.83731 11.2821 9.48626 11.2524C10.0865 11.225 10.4121 11.1249 10.6292 11.0404C10.9162 10.9285 11.1215 10.7959 11.3369 10.5806C11.5411 10.3819 11.6983 10.1397 11.7968 9.87286C11.8812 9.6558 11.9814 9.3302 12.0088 8.72992C12.0384 8.08097 12.0446 7.88628 12.0446 6.24321C12.0446 4.60013 12.0384 4.40544 12.0088 3.75649C11.9814 3.15621 11.8812 2.83062 11.7968 2.61355C11.6849 2.32656 11.5523 2.12124 11.3369 1.90586C11.1383 1.7017 10.8964 1.54458 10.6292 1.446C10.4121 1.36152 10.0865 1.26138 9.48626 1.23397ZM6.21354 8.14027C6.65251 8.323 7.1413 8.34766 7.59643 8.21004C8.05157 8.07242 8.4448 7.78106 8.70898 7.38572C8.97316 6.99038 9.09189 6.51558 9.04489 6.04242C8.99789 5.56927 8.78808 5.12711 8.4513 4.79146C8.23661 4.5769 7.97701 4.41261 7.69121 4.31042C7.4054 4.20823 7.10049 4.17068 6.79843 4.20047C6.49637 4.23026 6.20467 4.32666 5.94434 4.48272C5.684 4.63878 5.4615 4.85061 5.29287 5.10298C5.12423 5.35535 5.01364 5.64197 4.96907 5.9422C4.9245 6.24244 4.94705 6.54882 5.0351 6.8393C5.12315 7.12977 5.2745 7.39711 5.47827 7.62207C5.68205 7.84703 5.93316 8.02401 6.21354 8.14027ZM4.76291 4.00656C5.05663 3.71284 5.40532 3.47985 5.78909 3.32089C6.17285 3.16193 6.58417 3.08011 6.99955 3.08011C7.41493 3.08011 7.82625 3.16193 8.21001 3.32089C8.59378 3.47985 8.94247 3.71284 9.23619 4.00656C9.52991 4.30028 9.76291 4.64898 9.92187 5.03274C10.0808 5.41651 10.1626 5.82782 10.1626 6.24321C10.1626 6.65859 10.0808 7.0699 9.92187 7.45367C9.76291 7.83743 9.52991 8.18613 9.23619 8.47985C8.643 9.07304 7.83845 9.4063 6.99955 9.4063C6.16065 9.4063 5.3561 9.07304 4.76291 8.47985C4.16971 7.88665 3.83646 7.08211 3.83646 6.24321C3.83646 5.4043 4.16971 4.59976 4.76291 4.00656ZM10.8642 3.55118C10.937 3.48252 10.9952 3.39995 11.0355 3.30836C11.0758 3.21678 11.0973 3.11804 11.0988 3.01799C11.1003 2.91794 11.0816 2.81861 11.044 2.72589C11.0064 2.63317 10.9506 2.54894 10.8798 2.47819C10.8091 2.40744 10.7248 2.3516 10.6321 2.31398C10.5394 2.27637 10.4401 2.25773 10.34 2.25919C10.24 2.26065 10.1412 2.28217 10.0496 2.32247C9.95805 2.36278 9.87548 2.42105 9.80682 2.49383C9.67329 2.63539 9.60018 2.82341 9.60302 3.01799C9.60586 3.21257 9.68441 3.39838 9.82202 3.53598C9.95962 3.67359 10.1454 3.75214 10.34 3.75498C10.5346 3.75782 10.7226 3.68471 10.8642 3.55118Z" fill="#F5F8FB"/>
</symbol>

<symbol id="telegram-icon" width="24" height="20" viewBox="0 0 24 20" fill="none">
<path d="M23.5468 0.665896C23.1374 0.35768 22.4944 0.313579 21.8295 0.550557H21.8285C21.1292 0.79965 2.03537 8.07084 1.25808 8.36791C1.11671 8.41153 -0.118008 8.82054 0.00917513 9.73162C0.122712 10.553 1.11507 10.8932 1.23625 10.9325L6.0905 12.4082C6.41255 13.3599 7.59977 16.8715 7.86233 17.6217C8.02608 18.0893 8.293 18.7038 8.7608 18.8303C9.17128 18.9708 9.57957 18.8424 9.84376 18.6583L12.8116 16.2143L17.6025 19.5315L17.7166 19.5921C18.0419 19.7201 18.3536 19.784 18.6511 19.784C18.8809 19.784 19.1014 19.7457 19.3121 19.6692C20.0299 19.4075 20.317 18.8003 20.347 18.7314L23.9256 2.21715C24.144 1.33515 23.8405 0.886396 23.5468 0.665896ZM10.3716 12.9984L8.73405 16.8754L7.0965 12.0292L19.6511 3.79071L10.3716 12.9984Z" fill="#F5F8FB"/>
</symbol>

<symbol id="tiktok-icon" width="20" height="19" viewBox="0 0 20 19" fill="none">
<path d="M17.0333 0.0124512H2.96733C1.75547 0.0124512 0.769531 0.998385 0.769531 2.21025V16.2762C0.769531 17.4881 1.75547 18.474 2.96733 18.474H17.0333C18.2451 18.474 19.2311 17.4881 19.2311 16.2762V2.21025C19.2311 0.998385 18.2451 0.0124512 17.0333 0.0124512ZM15.2777 8.06652C15.1779 8.07575 15.0768 8.0819 14.9744 8.0819C13.8214 8.0819 12.8082 7.48893 12.2188 6.59267C12.2188 8.94388 12.2188 11.619 12.2188 11.6639C12.2188 13.7338 10.5405 15.412 8.47063 15.412C6.40074 15.412 4.7225 13.7338 4.7225 11.6639C4.7225 9.59399 6.40074 7.91575 8.47063 7.91575C8.54887 7.91575 8.62536 7.92278 8.70228 7.92762V9.77465C8.62536 9.76542 8.54975 9.75135 8.47063 9.75135C7.41393 9.75135 6.55766 10.6076 6.55766 11.6643C6.55766 12.721 7.41393 13.5773 8.47063 13.5773C9.52733 13.5773 10.4605 12.7448 10.4605 11.6881C10.4605 11.6463 10.479 3.07531 10.479 3.07531H12.2443C12.4104 4.65377 13.6847 5.89948 15.2777 6.01377V8.06652Z" fill="#F5F8FB"/>
</symbol>

<symbol id="twitter-icon" width="14" height="12" viewBox="0 0 14 12" fill="none">
<path d="M12.0958 2.3632C12.6672 2.00575 13.0947 1.4429 13.2986 0.77974C12.7616 1.11311 12.1742 1.34794 11.5616 1.47409C10.7123 0.533969 9.3667 0.305186 8.27666 0.915579C7.18662 1.52597 6.62201 2.82442 6.89833 4.0854C4.69901 3.96986 2.64997 2.88274 1.26108 1.09456C0.536239 2.40283 0.906646 4.07525 2.10756 4.91648C1.6733 4.90187 1.24866 4.77884 0.869069 4.55763C0.869069 4.56964 0.869069 4.58165 0.869069 4.59365C0.86932 5.95644 1.78718 7.13031 3.06367 7.40039C2.66087 7.51507 2.23836 7.53195 1.82837 7.44975C2.18736 8.61518 3.21381 9.41359 4.38375 9.43741C3.41478 10.2332 2.21813 10.6648 0.986353 10.6627C0.768021 10.663 0.549861 10.6499 0.333008 10.6233C1.58385 11.4644 3.03968 11.9109 4.52653 11.9093C6.59508 11.9242 8.58302 11.0708 10.0457 9.54014C11.5083 8.00945 12.3237 5.92915 12.3093 3.76457C12.3093 3.64051 12.3065 3.51711 12.301 3.39438C12.8367 2.98925 13.2991 2.48736 13.6663 1.91231C13.1673 2.1438 12.6379 2.29578 12.0958 2.3632Z" fill="#F5F8FB"/>
</symbol>

<symbol id="user-icon" width="16" height="17" viewBox="0 0 16 17" fill="none">
<path d="M8.00023 10.2433C5.88684 10.2433 4.00742 11.2637 2.81089 12.8473C2.55336 13.1881 2.4246 13.3585 2.42881 13.5888C2.43207 13.7667 2.5438 13.9912 2.6838 14.1011C2.86502 14.2433 3.11614 14.2433 3.61838 14.2433H12.3821C12.8843 14.2433 13.1354 14.2433 13.3166 14.1011C13.4567 13.9912 13.5684 13.7667 13.5716 13.5888C13.5759 13.3585 13.4471 13.1881 13.1896 12.8473C11.993 11.2637 10.1136 10.2433 8.00023 10.2433Z" stroke="#0265DC" stroke-width="2" stroke-linecap="round" stroke-linejoin="round"/>
<path d="M8.00023 8.24329C9.65708 8.24329 11.0002 6.90014 11.0002 5.24329C11.0002 3.58643 9.65708 2.24329 8.00023 2.24329C6.34337 2.24329 5.00023 3.58643 5.00023 5.24329C5.00023 6.90014 6.34337 8.24329 8.00023 8.24329Z" stroke="#0265DC" stroke-width="2" stroke-linecap="round" stroke-linejoin="round"/>
</symbol>

<symbol id="wallet-icon" width="20" height="20" viewBox="0 0 20 20" fill="none">
<path d="M14.5 12H14.51M1 3V17C1 18.1046 1.89543 19 3 19H17C18.1046 19 19 18.1046 19 17V7C19 5.89543 18.1046 5 17 5L3 5C1.89543 5 1 4.10457 1 3ZM1 3C1 1.89543 1.89543 1 3 1H15M15 12C15 12.2761 14.7761 12.5 14.5 12.5C14.2239 12.5 14 12.2761 14 12C14 11.7239 14.2239 11.5 14.5 11.5C14.7761 11.5 15 11.7239 15 12Z" stroke="#F5F8FB" stroke-width="2" stroke-linecap="round" stroke-linejoin="round"/>
</symbol>

<symbol id="yellow-stars" width="16" height="15" viewBox="0 0 16 15" fill="none">
<path d="M8.66634 1.24308L9.82246 4.24899C10.0105 4.73781 10.1045 4.98222 10.2507 5.18781C10.3802 5.37001 10.5394 5.52921 10.7216 5.65877C10.9272 5.80495 11.1716 5.89896 11.6604 6.08696L14.6663 7.24308L11.6604 8.3992C11.1716 8.58721 10.9272 8.68121 10.7216 8.8274C10.5394 8.95696 10.3802 9.11615 10.2507 9.29836C10.1045 9.50394 10.0105 9.74835 9.82246 10.2372L8.66634 13.2431L7.51022 10.2372C7.32222 9.74835 7.22821 9.50394 7.08203 9.29836C6.95247 9.11615 6.79327 8.95696 6.61107 8.8274C6.40548 8.68121 6.16107 8.58721 5.67225 8.3992L2.66634 7.24308L5.67225 6.08696C6.16107 5.89896 6.40548 5.80495 6.61106 5.65877C6.79327 5.52921 6.95247 5.37001 7.08203 5.18781C7.22821 4.98222 7.32222 4.73781 7.51022 4.24899L8.66634 1.24308Z" fill="#F8D904"/>
<path d="M2.99967 13.9097V10.5764M2.99967 3.90975V0.576416M1.33301 2.24308H4.66634M1.33301 12.2431H4.66634M8.66634 1.24308L7.51022 4.24899C7.32222 4.73781 7.22821 4.98222 7.08203 5.18781C6.95247 5.37001 6.79327 5.52921 6.61107 5.65877C6.40548 5.80495 6.16107 5.89896 5.67225 6.08696L2.66634 7.24308L5.67225 8.3992C6.16107 8.58721 6.40548 8.68121 6.61107 8.8274C6.79327 8.95696 6.95247 9.11615 7.08203 9.29836C7.22821 9.50394 7.32222 9.74835 7.51022 10.2372L8.66634 13.2431L9.82246 10.2372C10.0105 9.74835 10.1045 9.50394 10.2507 9.29836C10.3802 9.11615 10.5394 8.95696 10.7216 8.8274C10.9272 8.68121 11.1716 8.58721 11.6604 8.3992L14.6663 7.24308L11.6604 6.08696C11.1716 5.89896 10.9272 5.80495 10.7216 5.65877C10.5394 5.52921 10.3802 5.37001 10.2507 5.18781C10.1045 4.98222 10.0105 4.73781 9.82246 4.24899L8.66634 1.24308Z" stroke="#F8D904" stroke-linecap="round" stroke-linejoin="round"/>
</symbol>

<symbol id="youtube-icon" width="24" height="18" viewBox="0 0 24 18" fill="none">
<path d="M23.2523 3.16504C23.0312 1.9967 21.9776 1.14587 20.7549 0.880249C18.9253 0.508789 15.5391 0.243164 11.8755 0.243164C8.21396 0.243164 4.77359 0.508789 2.94177 0.880249C1.72127 1.14587 0.665529 1.94275 0.444408 3.16504C0.22112 4.49316 0 6.35254 0 8.74316C0 11.1338 0.22112 12.9932 0.498605 14.3213C0.721892 15.4896 1.77547 16.3405 2.99596 16.6061C4.93835 16.9775 8.26816 17.2432 11.9318 17.2432C15.5955 17.2432 18.9253 16.9775 20.8677 16.6061C22.0882 16.3405 23.1417 15.5436 23.365 14.3213C23.5862 12.9932 23.8636 11.0798 23.92 8.74316C23.8073 6.35254 23.5298 4.49316 23.2523 3.16504ZM8.87949 12.4619V5.02441L15.6497 8.74316L8.87949 12.4619Z" fill="#F5F8FB"/>
</symbol>

</svg>
