<svg width="24" height="20" viewBox="0 0 24 20" fill="none" xmlns="http://www.w3.org/2000/svg">
<path d="M23.5468 0.665896C23.1374 0.35768 22.4944 0.313579 21.8295 0.550557H21.8285C21.1292 0.79965 2.03537 8.07084 1.25808 8.36791C1.11671 8.41153 -0.118008 8.82054 0.00917513 9.73162C0.122712 10.553 1.11507 10.8932 1.23625 10.9325L6.0905 12.4082C6.41255 13.3599 7.59977 16.8715 7.86233 17.6217C8.02608 18.0893 8.293 18.7038 8.7608 18.8303C9.17128 18.9708 9.57957 18.8424 9.84376 18.6583L12.8116 16.2143L17.6025 19.5315L17.7166 19.5921C18.0419 19.7201 18.3536 19.784 18.6511 19.784C18.8809 19.784 19.1014 19.7457 19.3121 19.6692C20.0299 19.4075 20.317 18.8003 20.347 18.7314L23.9256 2.21715C24.144 1.33515 23.8405 0.886396 23.5468 0.665896ZM10.3716 12.9984L8.73405 16.8754L7.0965 12.0292L19.6511 3.79071L10.3716 12.9984Z" fill="#F5F8FB"/>
</svg>
