<svg width="20" height="19" viewBox="0 0 20 19" fill="none" xmlns="http://www.w3.org/2000/svg">
<path d="M17.0333 0.0124512H2.96733C1.75547 0.0124512 0.769531 0.998385 0.769531 2.21025V16.2762C0.769531 17.4881 1.75547 18.474 2.96733 18.474H17.0333C18.2451 18.474 19.2311 17.4881 19.2311 16.2762V2.21025C19.2311 0.998385 18.2451 0.0124512 17.0333 0.0124512ZM15.2777 8.06652C15.1779 8.07575 15.0768 8.0819 14.9744 8.0819C13.8214 8.0819 12.8082 7.48893 12.2188 6.59267C12.2188 8.94388 12.2188 11.619 12.2188 11.6639C12.2188 13.7338 10.5405 15.412 8.47063 15.412C6.40074 15.412 4.7225 13.7338 4.7225 11.6639C4.7225 9.59399 6.40074 7.91575 8.47063 7.91575C8.54887 7.91575 8.62536 7.92278 8.70228 7.92762V9.77465C8.62536 9.76542 8.54975 9.75135 8.47063 9.75135C7.41393 9.75135 6.55766 10.6076 6.55766 11.6643C6.55766 12.721 7.41393 13.5773 8.47063 13.5773C9.52733 13.5773 10.4605 12.7448 10.4605 11.6881C10.4605 11.6463 10.479 3.07531 10.479 3.07531H12.2443C12.4104 4.65377 13.6847 5.89948 15.2777 6.01377V8.06652Z" fill="#F5F8FB"/>
</svg>
