<svg width="14" height="12" viewBox="0 0 14 12" fill="none" xmlns="http://www.w3.org/2000/svg">
<path d="M12.0958 2.3632C12.6672 2.00575 13.0947 1.4429 13.2986 0.77974C12.7616 1.11311 12.1742 1.34794 11.5616 1.47409C10.7123 0.533969 9.3667 0.305186 8.27666 0.915579C7.18662 1.52597 6.62201 2.82442 6.89833 4.0854C4.69901 3.96986 2.64997 2.88274 1.26108 1.09456C0.536239 2.40283 0.906646 4.07525 2.10756 4.91648C1.6733 4.90187 1.24866 4.77884 0.869069 4.55763C0.869069 4.56964 0.869069 4.58165 0.869069 4.59365C0.86932 5.95644 1.78718 7.13031 3.06367 7.40039C2.66087 7.51507 2.23836 7.53195 1.82837 7.44975C2.18736 8.61518 3.21381 9.41359 4.38375 9.43741C3.41478 10.2332 2.21813 10.6648 0.986353 10.6627C0.768021 10.663 0.549861 10.6499 0.333008 10.6233C1.58385 11.4644 3.03968 11.9109 4.52653 11.9093C6.59508 11.9242 8.58302 11.0708 10.0457 9.54014C11.5083 8.00945 12.3237 5.92915 12.3093 3.76457C12.3093 3.64051 12.3065 3.51711 12.301 3.39438C12.8367 2.98925 13.2991 2.48736 13.6663 1.91231C13.1673 2.1438 12.6379 2.29578 12.0958 2.3632Z" fill="#F5F8FB"/>
</svg>
