<svg width="16" height="17" viewBox="0 0 16 17" fill="none" xmlns="http://www.w3.org/2000/svg">
<path d="M8.00023 10.2433C5.88684 10.2433 4.00742 11.2637 2.81089 12.8473C2.55336 13.1881 2.4246 13.3585 2.42881 13.5888C2.43207 13.7667 2.5438 13.9912 2.6838 14.1011C2.86502 14.2433 3.11614 14.2433 3.61838 14.2433H12.3821C12.8843 14.2433 13.1354 14.2433 13.3166 14.1011C13.4567 13.9912 13.5684 13.7667 13.5716 13.5888C13.5759 13.3585 13.4471 13.1881 13.1896 12.8473C11.993 11.2637 10.1136 10.2433 8.00023 10.2433Z" stroke="#0265DC" stroke-width="2" stroke-linecap="round" stroke-linejoin="round"/>
<path d="M8.00023 8.24329C9.65708 8.24329 11.0002 6.90014 11.0002 5.24329C11.0002 3.58643 9.65708 2.24329 8.00023 2.24329C6.34337 2.24329 5.00023 3.58643 5.00023 5.24329C5.00023 6.90014 6.34337 8.24329 8.00023 8.24329Z" stroke="#0265DC" stroke-width="2" stroke-linecap="round" stroke-linejoin="round"/>
</svg>
