<svg width="16" height="15" viewBox="0 0 16 15" fill="none" xmlns="http://www.w3.org/2000/svg">
<path d="M8.66634 1.24308L9.82246 4.24899C10.0105 4.73781 10.1045 4.98222 10.2507 5.18781C10.3802 5.37001 10.5394 5.52921 10.7216 5.65877C10.9272 5.80495 11.1716 5.89896 11.6604 6.08696L14.6663 7.24308L11.6604 8.3992C11.1716 8.58721 10.9272 8.68121 10.7216 8.8274C10.5394 8.95696 10.3802 9.11615 10.2507 9.29836C10.1045 9.50394 10.0105 9.74835 9.82246 10.2372L8.66634 13.2431L7.51022 10.2372C7.32222 9.74835 7.22821 9.50394 7.08203 9.29836C6.95247 9.11615 6.79327 8.95696 6.61107 8.8274C6.40548 8.68121 6.16107 8.58721 5.67225 8.3992L2.66634 7.24308L5.67225 6.08696C6.16107 5.89896 6.40548 5.80495 6.61106 5.65877C6.79327 5.52921 6.95247 5.37001 7.08203 5.18781C7.22821 4.98222 7.32222 4.73781 7.51022 4.24899L8.66634 1.24308Z" fill="#F8D904"/>
<path d="M2.99967 13.9097V10.5764M2.99967 3.90975V0.576416M1.33301 2.24308H4.66634M1.33301 12.2431H4.66634M8.66634 1.24308L7.51022 4.24899C7.32222 4.73781 7.22821 4.98222 7.08203 5.18781C6.95247 5.37001 6.79327 5.52921 6.61107 5.65877C6.40548 5.80495 6.16107 5.89896 5.67225 6.08696L2.66634 7.24308L5.67225 8.3992C6.16107 8.58721 6.40548 8.68121 6.61107 8.8274C6.79327 8.95696 6.95247 9.11615 7.08203 9.29836C7.22821 9.50394 7.32222 9.74835 7.51022 10.2372L8.66634 13.2431L9.82246 10.2372C10.0105 9.74835 10.1045 9.50394 10.2507 9.29836C10.3802 9.11615 10.5394 8.95696 10.7216 8.8274C10.9272 8.68121 11.1716 8.58721 11.6604 8.3992L14.6663 7.24308L11.6604 6.08696C11.1716 5.89896 10.9272 5.80495 10.7216 5.65877C10.5394 5.52921 10.3802 5.37001 10.2507 5.18781C10.1045 4.98222 10.0105 4.73781 9.82246 4.24899L8.66634 1.24308Z" stroke="#F8D904" stroke-linecap="round" stroke-linejoin="round"/>
</svg>
