<svg width="24" height="18" viewBox="0 0 24 18" fill="none" xmlns="http://www.w3.org/2000/svg">
<path d="M23.2523 3.16504C23.0312 1.9967 21.9776 1.14587 20.7549 0.880249C18.9253 0.508789 15.5391 0.243164 11.8755 0.243164C8.21396 0.243164 4.77359 0.508789 2.94177 0.880249C1.72127 1.14587 0.665529 1.94275 0.444408 3.16504C0.22112 4.49316 0 6.35254 0 8.74316C0 11.1338 0.22112 12.9932 0.498605 14.3213C0.721892 15.4896 1.77547 16.3405 2.99596 16.6061C4.93835 16.9775 8.26816 17.2432 11.9318 17.2432C15.5955 17.2432 18.9253 16.9775 20.8677 16.6061C22.0882 16.3405 23.1417 15.5436 23.365 14.3213C23.5862 12.9932 23.8636 11.0798 23.92 8.74316C23.8073 6.35254 23.5298 4.49316 23.2523 3.16504ZM8.87949 12.4619V5.02441L15.6497 8.74316L8.87949 12.4619Z" fill="#F5F8FB"/>
</svg>
