<svg width="24" height="24" viewBox="0 0 24 24" fill="none" xmlns="http://www.w3.org/2000/svg">
<path d="M19.8645 2.76923H4.13251C3.37891 2.76923 2.76953 3.36418 2.76953 4.09976V19.8966C2.76953 20.6322 3.37891 21.2308 4.13251 21.2308H19.8645C20.6181 21.2308 21.2311 20.6322 21.2311 19.9002V4.09976C21.2311 3.36418 20.6181 2.76923 19.8645 2.76923ZM8.2467 18.5012H5.50631V9.6887H8.2467V18.5012ZM6.8765 8.48798C5.9967 8.48798 5.28636 7.77764 5.28636 6.90144C5.28636 6.02524 5.9967 5.3149 6.8765 5.3149C7.75271 5.3149 8.46304 6.02524 8.46304 6.90144C8.46304 7.77403 7.75271 8.48798 6.8765 8.48798ZM18.5015 18.5012H15.7647V14.2175C15.7647 13.1971 15.7467 11.881 14.3404 11.881C12.9162 11.881 12.6998 12.9952 12.6998 14.1454V18.5012H9.96665V9.6887H12.5916V10.893H12.6277C12.9919 10.2007 13.8861 9.46875 15.2167 9.46875C17.9895 9.46875 18.5015 11.2933 18.5015 13.6659V18.5012Z" fill="#F5F8FB"/>
</svg>
