<svg width="24" height="24" viewBox="0 0 24 24" fill="none" xmlns="http://www.w3.org/2000/svg">
<path d="M19.0333 2.76923H4.96733C3.75547 2.76923 2.76953 3.75516 2.76953 4.96703V19.033C2.76953 20.2448 3.75547 21.2308 4.96733 21.2308H19.0333C20.2451 21.2308 21.2311 20.2448 21.2311 19.033V4.96703C21.2311 3.75516 20.2451 2.76923 19.0333 2.76923ZM17.2777 10.8233C17.1779 10.8325 17.0768 10.8387 16.9744 10.8387C15.8214 10.8387 14.8082 10.2457 14.2188 9.34945C14.2188 11.7007 14.2188 14.3758 14.2188 14.4207C14.2188 16.4905 12.5405 18.1688 10.4706 18.1688C8.40074 18.1688 6.7225 16.4905 6.7225 14.4207C6.7225 12.3508 8.40074 10.6725 10.4706 10.6725C10.5489 10.6725 10.6254 10.6796 10.7023 10.6844V12.5314C10.6254 12.5222 10.5498 12.5081 10.4706 12.5081C9.41393 12.5081 8.55766 13.3644 8.55766 14.4211C8.55766 15.4778 9.41393 16.3341 10.4706 16.3341C11.5273 16.3341 12.4605 15.5015 12.4605 14.4448C12.4605 14.4031 12.479 5.83208 12.479 5.83208H14.2443C14.4104 7.41054 15.6847 8.65626 17.2777 8.77054V10.8233Z" fill="#F5F8FB"/>
</svg>
